<svg xmlns:xlink="http://www.w3.org/1999/xlink" xmlns="http://www.w3.org/2000/svg" width="265" height="90" viewBox="0 0 53 18" fill="none">
<path d="M34.7676 11.8443V7.02594H29.8066V11.8443H27.6562V0.198273H29.8066V5.02742H34.7676V0.198273H36.9055V11.8443H34.7676Z" fill="white"/>
<path d="M23.8204 2.72194C23.9863 3.02226 24.0734 3.45117 24.0734 3.95723V11.8443H26.1665V3.2952C26.1665 2.48385 25.994 1.79029 25.6472 1.23943C25.1171 0.429737 24.2485 0 23.131 0C21.6634 0 20.5658 0.702678 19.5952 1.65424L19.1107 2.12463V0.199108H15.5293V1.88155H17.1172V11.846H19.2094V3.25704L19.3123 3.17242C20.0349 2.57345 21.1283 1.85501 22.2524 1.85501C23.1749 1.85584 23.6155 2.32705 23.8204 2.72194Z" fill="white"/>
<path d="M0 14.3099H0.408181V15.9168H2.4963V14.3099H2.90446V17.9278H2.4963V16.3001H0.408181V17.9278H0V14.3099Z" fill="white"/>
<path d="M3.76758 16.1292V16.1184C3.76758 15.1213 4.5167 14.2477 5.61759 14.2477C6.71848 14.2477 7.45767 15.1105 7.45767 16.1085V16.1184C7.45767 17.1156 6.70853 17.9892 5.60764 17.9892C4.50675 17.9892 3.76758 17.1264 3.76758 16.1292ZM7.03373 16.1292V16.1184C7.03373 15.2971 6.43393 14.6252 5.60764 14.6252C4.78052 14.6252 4.1915 15.2863 4.1915 16.1085V16.1184C4.1915 16.9398 4.7913 17.6117 5.61759 17.6117C6.44388 17.6126 7.03373 16.9514 7.03373 16.1292Z" fill="white"/>
<path d="M9.02899 14.6874H7.81445V14.3099H10.6567V14.6874H9.44213V17.9278H9.02899V14.6874Z" fill="white"/>
<path d="M11.4219 14.3099H14.0368V14.6824H11.83V15.9177H13.8045V16.2893H11.83V17.5553H14.0625V17.927H11.4219V14.3099Z" fill="white"/>
<path d="M14.8836 14.3099H15.2918V17.5504H17.3277V17.9278H14.8828V14.3099H14.8836Z" fill="white"/>
<path d="M17.8438 17.401L18.0968 17.1015C18.4743 17.4425 18.836 17.6134 19.337 17.6134C19.8224 17.6134 20.1434 17.3554 20.1434 16.9987V16.9879C20.1434 16.6519 19.9626 16.4611 19.2026 16.3001C18.3705 16.1193 17.9881 15.8505 17.9881 15.2565V15.2465C17.9881 14.6783 18.4892 14.2593 19.1769 14.2593C19.7037 14.2593 20.0812 14.4095 20.4479 14.704L20.2106 15.0192C19.8746 14.7455 19.5386 14.6268 19.167 14.6268C18.6966 14.6268 18.3971 14.8848 18.3971 15.2109V15.2208C18.3971 15.5618 18.5829 15.7534 19.3794 15.9235C20.1857 16.0994 20.5574 16.3939 20.5574 16.9464V16.9564C20.5574 17.5769 20.0406 17.9793 19.3221 17.9793C18.7489 17.9793 18.2785 17.7885 17.8438 17.401Z" fill="white"/>
<path d="M24.9814 17.4159C24.6504 17.7727 24.2679 17.9793 23.7975 17.9793C23.1463 17.9793 22.6602 17.5711 22.6602 16.9663V16.9555C22.6602 16.4752 22.9804 16.1284 23.5337 15.9119C23.2857 15.6223 23.172 15.4 23.172 15.1163V15.1063C23.172 14.631 23.5545 14.2485 24.1277 14.2485C24.6338 14.2485 25.0063 14.6152 25.0063 15.0648V15.0748C25.0063 15.5344 24.6803 15.8289 24.1535 16.0156L24.9806 16.8576C25.1407 16.6253 25.285 16.3507 25.4144 16.0512L25.7504 16.2064C25.5903 16.5474 25.4252 16.8576 25.2286 17.1156L25.8591 17.7619L25.5488 18L24.9814 17.4159ZM24.7333 17.1629L23.7668 16.1657C23.2865 16.3416 23.0741 16.6361 23.0741 16.9406V16.9514C23.0741 17.3388 23.3844 17.6333 23.8282 17.6333C24.17 17.6333 24.4695 17.4524 24.7333 17.1629ZM24.6247 15.0955V15.0856C24.6247 14.796 24.4073 14.5845 24.1128 14.5845C23.7868 14.5845 23.5653 14.8118 23.5653 15.1063V15.1163C23.5653 15.3278 23.6532 15.4888 23.927 15.7833C24.3874 15.6281 24.6247 15.4058 24.6247 15.0955Z" fill="white"/>
<path d="M28.0887 14.3099H29.6442C30.0889 14.3099 30.4456 14.4443 30.6729 14.6716C30.8488 14.8475 30.9517 15.1005 30.9517 15.3851V15.395C30.9517 15.9948 30.5385 16.3458 29.9694 16.4495L31.0803 17.9278H30.5792L29.5298 16.5225H28.4961V17.9278H28.0879V14.3099H28.0887ZM29.6077 16.155C30.1503 16.155 30.5377 15.8762 30.5377 15.4108V15.4008C30.5377 14.9562 30.1968 14.6874 29.6127 14.6874H28.4961V16.155H29.6077Z" fill="white"/>
<path d="M31.8242 14.3099H34.4391V14.6824H32.2324V15.9177H34.2068V16.2893H32.2324V17.5553H34.4649V17.927H31.8242V14.3099Z" fill="white"/>
<path d="M35.0488 17.401L35.3019 17.1015C35.6793 17.4425 36.041 17.6134 36.5421 17.6134C37.0274 17.6134 37.3485 17.3554 37.3485 16.9987V16.9879C37.3485 16.6519 37.1677 16.4611 36.4077 16.3001C35.5756 16.1193 35.1932 15.8505 35.1932 15.2565V15.2465C35.1932 14.6783 35.6943 14.2593 36.382 14.2593C36.9088 14.2593 37.2863 14.4095 37.653 14.704L37.4157 15.0192C37.0797 14.7455 36.7437 14.6268 36.3721 14.6268C35.9017 14.6268 35.6022 14.8848 35.6022 15.2109V15.2208C35.6022 15.5618 35.788 15.7534 36.5844 15.9235C37.3908 16.0994 37.7625 16.3939 37.7625 16.9464V16.9564C37.7625 17.5769 37.2456 17.9793 36.5272 17.9793C35.9531 17.9793 35.4827 17.7885 35.0488 17.401Z" fill="white"/>
<path d="M38.4336 16.1292V16.1184C38.4336 15.1213 39.1827 14.2477 40.2836 14.2477C41.3845 14.2477 42.1237 15.1105 42.1237 16.1085V16.1184C42.1237 17.1156 41.3746 17.9892 40.2737 17.9892C39.1728 17.99 38.4336 17.1264 38.4336 16.1292ZM41.6998 16.1292V16.1184C41.6998 15.2971 41.1 14.6252 40.2737 14.6252C39.4466 14.6252 38.8575 15.2863 38.8575 16.1085V16.1184C38.8575 16.9398 39.4573 17.6117 40.2836 17.6117C41.1107 17.6126 41.6998 16.9514 41.6998 16.1292Z" fill="white"/>
<path d="M42.9872 14.3099H44.5427C44.9873 14.3099 45.3441 14.4443 45.5714 14.6716C45.7473 14.8475 45.8501 15.1005 45.8501 15.3851V15.395C45.8501 15.9948 45.437 16.3458 44.8679 16.4495L45.9787 17.9278H45.4776L44.4282 16.5225H43.3945V17.9278H42.9863V14.3099H42.9872ZM44.507 16.155C45.0495 16.155 45.437 15.8762 45.437 15.4108V15.4008C45.437 14.9562 45.096 14.6874 44.512 14.6874H43.3953V16.155H44.507Z" fill="white"/>
<path d="M47.6442 14.6874H46.4297V14.3099H49.2719V14.6874H48.0574V17.9278H47.6442V14.6874Z" fill="white"/>
<path d="M49.7207 17.401L49.9737 17.1015C50.3512 17.4425 50.7129 17.6134 51.214 17.6134C51.6993 17.6134 52.0204 17.3554 52.0204 16.9987V16.9879C52.0204 16.6519 51.8395 16.4611 51.0796 16.3001C50.2475 16.1193 49.8651 15.8505 49.8651 15.2565V15.2465C49.8651 14.6783 50.3661 14.2593 51.0539 14.2593C51.5807 14.2593 51.9581 14.4095 52.3248 14.704L52.0876 15.0192C51.7516 14.7455 51.4156 14.6268 51.0439 14.6268C50.5735 14.6268 50.274 14.8848 50.274 15.2109V15.2208C50.274 15.5618 50.4599 15.7534 51.2563 15.9235C52.0627 16.0994 52.4343 16.3939 52.4343 16.9464V16.9564C52.4343 17.5769 51.9175 17.9793 51.1991 17.9793C50.625 17.9793 50.1546 17.7885 49.7207 17.401Z" fill="white"/>
</svg>